<?xml version="1.0" encoding="iso-8859-1"?>
<!-- Generator: Adobe Illustrator 19.0.0, SVG Export Plug-In . SVG Version: 6.00 Build 0)  -->
<svg version="1.1" id="Layer_1" xmlns="http://www.w3.org/2000/svg" xmlns:xlink="http://www.w3.org/1999/xlink" x="0px" y="0px"
	 viewBox="0 0 509.151 509.151" style="enable-background:new 0 0 509.151 509.151;" xml:space="preserve">
<g transform="translate(1 1)">
	<g>
		<path style="fill:#FFA800;" d="M112.143,360.524c-12.8-17.067-5.973-33.28-5.12-49.493"/>
		<path style="fill:#FFA800;" d="M184.677,233.378l5.12-16.213"/>
		<path style="fill:#FFA800;" d="M289.637,205.218l-44.373,46.933"/>
		<path style="fill:#FFA800;" d="M334.01,249.591l-29.013,28.16"/>
		<path style="fill:#FFA800;" d="M378.383,293.964l-56.32,52.053"/>
		<path style="fill:#FFA800;" d="M255.503,482.551c-11.093,1.707-17.067-0.853-33.28-11.093"/>
		<path style="fill:#FFA800;" d="M421.903,338.338c11.947-11.947,11.947-32.427,0-44.373s-32.427-11.947-44.373,0l-55.467,52.053
			L444.09,227.404c11.947-11.947,11.947-32.427,0-44.373c-11.947-11.947-35.84-8.533-44.373,0l-66.56,66.56l88.747-88.747
			c11.947-11.947,11.947-32.427,0-44.373c-11.947-11.947-29.867-13.653-44.373,0l-87.893,88.747l64.853-64.853
			c15.36-15.36,13.653-34.133,1.707-46.08c-11.947-11.947-31.573-12.8-44.373,0L189.797,216.311l4.267-24.747
			c8.533-30.72-9.387-65.707-33.28-76.8c-3.413-1.707-6.827-2.56-10.24-2.56c-11.093-2.56-14.507,4.267-16.213,5.12
			c-1.707,0.853-2.56,65.707-16.213,116.053c0,0-10.24,42.667-11.093,77.653l-17.067,17.067c-27.307,27.307-27.307,71.68,0,99.84
			l55.467,55.467c23.04,20.48,58.88,23.04,87.893,9.387c6.827-3.413,15.36-8.533,23.04-9.387c10.24-0.853,30.72-8.533,49.493-27.307
			c3.413-3.413,45.227-45.227,49.493-49.493l0,0L421.903,338.338z"/>
	</g>
	<g>
		<path style="fill:#FFE100;" d="M95.077,343.458c-12.8-17.067-5.973-33.28-5.12-49.493"/>
		<path style="fill:#FFE100;" d="M167.61,216.311l5.12-16.213"/>
		<path style="fill:#FFE100;" d="M272.57,188.151l-44.373,46.933"/>
		<path style="fill:#FFE100;" d="M316.943,232.524l-29.013,28.16"/>
		<path style="fill:#FFE100;" d="M361.317,276.898l-56.32,52.053"/>
		<path style="fill:#FFE100;" d="M238.437,465.484c-11.093,1.707-17.067-0.853-33.28-11.093"/>
		<path style="fill:#FFE100;" d="M404.837,321.271c11.947-11.947,12.8-31.573,1.707-42.667s-32.427-12.8-44.373-0.853l-53.76,55.467
			l122.027-118.613c11.947-11.947,21.333-20.48,10.24-32.427c-11.093-11.093-34.133-6.827-42.667,1.707l-59.733,56.32l81.92-78.507
			c11.947-11.947,4.267-41.813-6.827-52.907s-28.16-11.947-42.667,1.707l-87.04,88.747l64.853-64.853
			c15.36-15.36,14.507-33.28,3.413-44.373c-11.093-11.093-29.867-11.093-42.667,1.707L188.09,214.604l5.12-23.893
			c9.387-29.867-5.973-63.147-29.013-72.533c-2.56-0.853-5.973-1.707-9.387-2.56c-11.093-1.707-14.507,5.12-16.213,5.973
			c-1.707,0.853-4.267,62.293-20.48,111.787c0,0-11.093,40.96-13.653,74.24l-17.067,17.067
			c-27.307,27.307-29.013,69.973-4.267,94.72l50.347,50.347c21.333,18.773,55.467,19.627,83.627,5.12
			c6.827-3.413,15.36-9.387,22.187-10.24c10.24-0.853,29.867-9.387,48.64-28.16c3.413-3.413,45.227-45.227,49.493-49.493l0,0
			L404.837,321.271z"/>
	</g>
	<g>
		<path style="fill:#FFA800;" d="M194.917,191.564l-4.267,24.747L312.677,94.284c9.387-9.387,23.04-11.093,34.987-5.12l0,0
			l15.36-22.187c10.24-14.507,6.827-33.28-7.68-43.52s-32.427-8.533-43.52,7.68l-23.893,33.28c12.8-17.92,11.947-40.96-1.707-51.2
			c-14.507-10.24-33.28-6.827-43.52,7.68L172.73,121.591l0,0C190.65,136.098,201.743,165.111,194.917,191.564"/>
		<path style="fill:#FFA800;" d="M69.477,375.031c0-17.067,6.827-34.987,20.48-47.787l16.213-17.067
			c0.853-34.987,11.093-77.653,11.093-77.653c14.507-50.347,14.507-115.2,16.213-116.053c0.853-0.853,2.56-3.413,5.973-5.12
			c-5.12-21.333-23.04-40.107-41.813-45.227c-3.413-0.853-6.827-0.853-10.24-0.853c-11.947-0.853-14.507,6.827-15.36,7.68
			c-1.707,1.707,9.387,64.853,3.413,116.907c0,0-2.56,43.52,2.56,78.507l-13.653,19.627
			C45.583,315.298,48.997,351.138,69.477,375.031L69.477,375.031z"/>
	</g>
	<path d="M112.143,369.058c-2.56,0-5.12-0.853-6.827-3.413c-11.093-15.36-9.387-30.72-7.68-43.52
		c0.853-4.267,0.853-7.68,0.853-11.947s3.413-8.533,8.533-8.533l0,0c5.12,0,8.533,4.267,8.533,8.533s-0.853,9.387-0.853,13.653
		c-0.853,11.093-2.56,21.333,5.12,31.573c2.56,3.413,1.707,9.387-1.707,11.947C116.41,368.204,114.703,369.058,112.143,369.058z"/>
	<path d="M184.677,241.911c-0.853,0-1.707,0-2.56-0.853c-4.267-1.707-6.827-5.973-5.12-11.093l5.12-16.213
		c1.707-4.267,5.973-6.827,11.093-5.12c4.267,1.707,6.827,5.973,5.12,11.093l-5.12,16.213
		C191.503,239.351,188.09,241.911,184.677,241.911z"/>
	<path d="M245.263,260.684c-1.707,0-4.267-0.853-5.973-2.56c-3.413-3.413-3.413-8.533,0-11.947l44.373-46.933
		c3.413-3.413,8.533-3.413,11.947,0s3.413,8.533,0,11.947l-44.373,46.933C249.53,259.831,247.823,260.684,245.263,260.684z"/>
	<path d="M304.997,286.284c-2.56,0-4.267-0.853-5.973-2.56c-3.413-3.413-3.413-8.533,0-11.947l29.013-28.16
		c3.413-3.413,8.533-3.413,11.947,0c3.413,3.413,3.413,8.533,0,11.947l-29.013,28.16
		C309.263,285.431,307.557,286.284,304.997,286.284z"/>
	<path d="M322.063,354.551c-2.56,0-4.267-0.853-5.973-2.56c-3.413-3.413-3.413-8.533,0-11.947l56.32-52.053
		c3.413-3.413,8.533-3.413,11.947,0c3.413,3.413,3.413,8.533,0,11.947l-56.32,52.053C326.33,353.698,323.77,354.551,322.063,354.551
		z"/>
	<path d="M250.383,491.084c-10.24,0-17.067-4.267-31.573-12.8c-4.267-2.56-5.12-7.68-3.413-11.947
		c2.56-4.267,7.68-5.12,11.947-3.413c16.213,9.387,19.627,11.093,28.16,9.387c4.267-0.853,9.387,2.56,9.387,6.827
		c0,4.267-2.56,9.387-6.827,9.387C254.65,491.084,252.09,491.084,250.383,491.084z"/>
	<path d="M195.77,508.151c-20.48,0-40.96-6.827-56.32-19.627l-55.467-55.467c-30.72-30.72-30.72-81.067,0-111.787l14.507-14.507
		c1.707-34.987,11.093-74.24,11.093-75.947c10.24-35.84,13.653-79.36,14.507-100.693c1.707-16.213,1.707-17.92,5.973-20.48
		c2.56-2.56,9.387-9.387,23.04-6.827c4.267,0.853,8.533,1.707,11.947,3.413c29.013,12.8,46.08,51.2,39.253,84.48l102.4-102.4
		c7.68-7.68,17.92-11.947,28.16-11.947s20.48,4.267,28.16,11.947c5.973,5.973,10.24,12.8,11.093,20.48
		c8.533-7.68,17.92-11.093,28.16-11.093c10.24,0,19.627,4.267,27.307,11.947c15.36,15.36,15.36,40.96,0,56.32l0,0
		c8.533,0.853,16.213,4.267,22.187,10.24c7.68,7.68,11.947,17.92,11.947,28.16s-4.267,20.48-11.947,28.16l-44.373,42.667
		c8.533,0.853,16.213,5.12,22.187,11.093c15.36,15.36,15.36,40.96,0,56.32l-41.813,41.813c-3.413,3.413-8.533,3.413-11.947,0
		c-3.413-3.413-3.413-8.533,0-11.947l41.813-41.813c8.533-8.533,8.533-23.04,0-32.427c-8.533-8.533-23.893-8.533-32.427,0
		l-56.32,52.053c-3.413,3.413-8.533,3.413-11.947,0c-3.413-3.413-3.413-8.533,0-11.947L438.97,219.724
		c4.267-4.267,6.827-10.24,6.827-16.213c0-5.973-2.56-11.947-6.827-16.213c-8.533-8.533-26.453-5.12-32.427,0l-66.56,66.56
		c-3.413,3.413-8.533,3.413-11.947,0c-3.413-3.413-3.413-8.533,0-11.947l66.56-66.56l0,0l22.187-22.187
		c8.533-8.533,8.533-23.04,0-32.427c-4.267-4.267-10.24-6.827-15.36-7.68c-5.973,0-11.947,2.56-16.213,7.68l-89.6,90.453
		c-3.413,3.413-8.533,3.413-11.947,0s-3.413-8.533,0-11.947l64.853-64.853c5.973-5.973,8.533-11.947,8.533-17.92
		c0-5.973-2.56-11.093-6.827-15.36c-4.267-4.267-10.24-6.827-16.213-6.827c-5.973,0-11.947,2.56-16.213,6.827L195.77,222.284
		c-2.56,2.56-6.827,3.413-10.24,1.707c-3.413-1.707-5.12-5.12-4.267-9.387l4.267-24.747c7.68-28.16-9.387-58.88-29.013-67.413
		c-1.707-0.853-4.267-1.707-7.68-2.56c-4.267-0.853-5.973,0-6.827,1.707c0,2.56-0.853,6.827-0.853,10.24
		c-1.707,21.333-5.12,66.56-15.36,103.253c0,0-9.387,41.813-11.093,75.093c0,2.56-0.853,4.267-2.56,5.973l-17.067,17.067
		c-23.893,23.893-23.893,63.147,0,87.04l55.467,55.467c19.627,17.067,51.2,20.48,77.653,7.68c1.707-0.853,3.413-1.707,5.12-2.56
		c5.973-3.413,13.653-6.827,20.48-7.68c6.827-0.853,25.6-6.827,44.373-25.6l31.573-31.573c3.413-3.413,8.533-3.413,11.947,0
		c3.413,3.413,3.413,8.533,0,11.947l-31.573,31.573c-20.48,20.48-42.667,29.013-55.467,29.867c-3.413,0-9.387,3.413-14.507,5.973
		c-1.707,0.853-4.267,1.707-5.973,2.56C223.93,505.591,210.277,508.151,195.77,508.151z"/>
	<path d="M364.73,405.751c0-5.12-3.413-8.533-8.533-8.533c-5.12,0-8.533,3.413-8.533,8.533c0,5.12,3.413,8.533,8.533,8.533
		C361.317,414.284,364.73,410.871,364.73,405.751"/>
	<path d="M189.797,224.844c-1.707,0-2.56,0-4.267-0.853c-3.413-1.707-5.12-5.12-4.267-9.387l4.267-24.747c0,0,0,0,0-0.853
		c6.827-23.893-5.12-49.493-19.627-61.44c-3.413-2.56-4.267-7.68-1.707-11.093L234.17,15.778c12.8-17.92,37.547-22.187,55.467-9.387
		c6.827,5.12,11.093,11.947,13.653,20.48l0,0c6.827-9.387,16.213-15.36,26.453-17.067c9.387-1.707,20.48,0.853,29.013,7.68
		c17.92,12.8,22.187,37.547,9.387,55.467l-14.507,20.48l0,0c-1.707,4.267-6.827,5.973-11.093,4.267c0,0,0,0-0.853,0
		c-8.533-4.267-18.773-2.56-26.453,4.267L195.77,222.284C194.063,223.991,192.357,224.844,189.797,224.844z M182.97,119.884
		c17.067,17.92,25.6,46.08,20.48,70.827l102.4-102.4c10.24-10.24,24.747-14.507,38.4-10.24l11.093-16.213
		c6.827-10.24,4.267-24.747-5.973-31.573c-5.12-3.413-11.093-5.12-17.067-4.267c-5.973,0.853-11.093,4.267-15.36,10.24
		l-23.893,33.28c-2.56,3.413-7.68,5.12-11.947,1.707c-4.267-2.56-5.12-7.68-1.707-11.947c5.12-6.827,7.68-15.36,7.68-23.893
		c0-6.827-2.56-12.8-7.68-16.213c-10.24-7.68-23.893-5.12-31.573,5.973L182.97,119.884z"/>
	<path d="M69.477,383.564c-2.56,0-5.12-0.853-5.973-2.56c-24.747-27.307-26.453-67.413-5.973-97.28l11.947-16.213
		c-4.267-34.133-2.56-75.093-2.56-76.8c4.267-37.547-0.853-81.067-2.56-102.4c-1.707-16.213-1.707-17.92,1.707-21.333
		c1.707-2.56,6.827-11.093,21.333-10.24c5.12,0,8.533,0.853,11.947,1.707c22.187,5.973,41.813,26.453,49.493,51.2
		c1.707,4.267-0.853,8.533-5.12,10.24c-0.853,0-0.853,0.853-1.707,1.707c0,2.56-0.853,6.827-0.853,10.24
		c-1.707,21.333-5.12,66.56-15.36,103.253c0,0-9.387,41.813-11.093,75.093c0,2.56-0.853,4.267-2.56,5.973l-17.067,17.067
		c-11.093,11.093-17.92,26.453-17.92,41.813c0,3.413-2.56,6.827-5.973,7.68C72.037,383.564,71.183,383.564,69.477,383.564z
		 M80.57,76.364c0,2.56,0.853,6.827,0.853,11.093c2.56,21.333,6.827,66.56,2.56,104.96c0,0-2.56,42.667,2.56,75.947
		c0,2.56,0,4.267-1.707,5.973l-13.653,19.627c-12.8,17.92-14.507,40.107-6.827,58.88c3.413-11.947,10.24-22.187,18.773-30.72
		l14.507-14.507c1.707-34.987,11.093-74.24,11.093-75.947c10.24-35.84,13.653-79.36,14.507-100.693
		c2.56-17.067,2.56-18.773,6.827-21.333l0.853-0.853c-6.827-17.067-21.333-30.72-35.84-34.133c-2.56-0.853-5.12-0.853-8.533-0.853
		C82.277,73.804,81.423,74.658,80.57,76.364z"/>
	<path d="M270.863,98.551c-1.707,0-3.413-0.853-5.12-1.707c-4.267-2.56-5.12-7.68-2.56-11.947l17.067-25.6
		c2.56-4.267,7.68-5.12,11.947-2.56c4.267,2.56,5.12,7.68,2.56,11.947l-17.067,25.6C275.983,96.844,273.423,98.551,270.863,98.551z"
		/>
</g>
<g>
</g>
<g>
</g>
<g>
</g>
<g>
</g>
<g>
</g>
<g>
</g>
<g>
</g>
<g>
</g>
<g>
</g>
<g>
</g>
<g>
</g>
<g>
</g>
<g>
</g>
<g>
</g>
<g>
</g>
</svg>
