<?xml version="1.0" encoding="iso-8859-1"?>
<!-- Generator: Adobe Illustrator 19.0.0, SVG Export Plug-In . SVG Version: 6.00 Build 0)  -->
<svg version="1.1" id="Layer_1" xmlns="http://www.w3.org/2000/svg" xmlns:xlink="http://www.w3.org/1999/xlink" x="0px" y="0px"
	 viewBox="0 0 509.521 509.521" style="enable-background:new 0 0 509.521 509.521;" xml:space="preserve">
<g>
	<g>
		<path d="M452.454,178.436c-6.084-6.084-14.02-9.148-22.161-10.018l0.043-0.043c15.147-15.155,15.403-39.518,0.973-55.117
			c-0.486-0.683-1.016-1.271-1.673-1.783c-16.077-15.454-37.956-15.778-54.195-0.785c-1.374-7.083-4.992-13.875-10.743-19.9
			c-0.435-0.563-0.93-1.041-1.493-1.476c-0.563-0.538-1.195-0.973-1.775-1.468l10.325-14.763
			c12.595-17.98,8.201-42.863-9.779-55.458c-8.883-6.221-19.183-8.841-28.954-7.441c-10.53,1.544-19.695,7.492-26.496,17.195
			l-0.256,0.367c-2.048-8.32-6.571-15.531-13.508-20.386c-18.287-12.8-42.667-8.508-55.458,9.788l-65.391,93.372
			c-1.715-1.007-3.482-1.929-5.299-2.748c-3.302-1.502-7.006-2.637-11.639-3.575c-2.355-0.469-4.429-0.589-6.391-0.58
			c-8.994-21.879-27.145-39.322-47.036-44.407c-4.625-1.195-9.131-1.425-12.117-1.502c-14.37-0.41-19.84,7.885-21.632,10.82
			c-3.294,3.294-3.115,4.983-1.451,21.205c2.159,20.949,6.647,64.529,2.79,101.606c-0.102,1.749-2.415,42.129,2.159,76.535
			l-11.58,16.538c-20.403,29.133-18.756,67.686,3.593,94.993c0.341,20.557,8.448,39.842,23.031,54.417l55.825,55.782
			c15.189,13.116,35.294,19.917,56.004,19.917c13.79,0,27.853-3.012,40.909-9.19c1.809-0.862,3.746-1.886,5.751-2.944
			c3.618-1.911,7.586-4.011,10.948-5.069c1.109-0.085,2.125-0.085,3.328-0.256c0.717-0.102,1.314-0.435,1.954-0.691
			c12.706-1.579,33.357-10.086,53.111-29.841c3.627-3.627,43.383-43.401,49.237-49.28c0.196-0.171,0.401-0.35,0.546-0.503
			l66.381-66.372c15.522-15.531,15.522-40.789,0-56.32c-6.289-6.281-14.165-10.018-22.332-11.23l44.45-43.068
			C467.984,219.217,467.984,193.967,452.454,178.436z M440.481,222.597L318.156,341.116c-0.461,0.444-0.708,0.998-1.041,1.51
			c-0.265,0.401-0.631,0.759-0.819,1.195c-0.247,0.546-0.282,1.143-0.401,1.724c-0.102,0.486-0.299,0.956-0.316,1.459
			c-0.017,0.529,0.162,1.05,0.247,1.579c0.094,0.546,0.085,1.109,0.29,1.638c0.188,0.503,0.572,0.93,0.862,1.399
			c0.29,0.486,0.478,1.007,0.879,1.434c0.009,0.017,0.026,0.017,0.034,0.026c0.009,0.008,0.017,0.026,0.026,0.034
			c0.811,0.862,1.766,1.502,2.79,1.946c0.316,0.137,0.666,0.128,0.998,0.222c0.742,0.222,1.485,0.452,2.261,0.461
			c0.043,0,0.085,0.026,0.128,0.026c0.7,0,1.374-0.205,2.048-0.375c0.316-0.077,0.64-0.06,0.947-0.179
			c1.024-0.375,1.98-0.947,2.825-1.732l55.953-52.147c0-0.009,0.009-0.017,0.009-0.026l0.205-0.188
			c8.858-8.858,23.287-8.875,32.179,0c8.875,8.875,8.875,23.322,0,32.188l-66.082,66.082c-0.205,0.171-0.41,0.358-0.572,0.521
			c-4.523,4.557-45.798,45.85-49.502,49.553c-18.756,18.756-37.214,24.67-44.356,25.173c-1.647,0.119-3.285,0.444-4.898,0.845
			c-6.025,0.154-10.53-2.116-24.047-10.061c-4.062-2.389-9.293-1.016-11.682,3.038c-2.381,4.062-1.024,9.284,3.038,11.682
			c3.618,2.125,6.784,3.959,9.66,5.521c-26.231,11.563-56.695,8.115-76.049-8.55l-55.364-55.356
			c-11.674-11.674-18.099-27.196-18.099-43.691c0-0.469,0.06-0.922,0.068-1.391c0-0.026,0.017-0.051,0.017-0.085
			c0.282-11.989,3.951-23.416,10.505-33.118c0.034-0.051,0.077-0.102,0.111-0.154c1.058-1.553,2.185-3.063,3.388-4.523
			c1.263-1.527,2.594-3.004,4.011-4.42l0.265-0.265c-0.427,10.095,0.845,21.308,9.003,32.401c1.664,2.278,4.258,3.482,6.886,3.482
			c1.749,0,3.524-0.538,5.035-1.655c3.806-2.79,4.617-8.132,1.826-11.921c-7.253-9.89-6.153-19.78-4.873-31.232
			c0.478-4.275,0.964-8.695,0.998-13.21c0-0.017,0.009-0.034,0.009-0.051c0.922-33.664,10.726-75.281,10.735-75.324
			c8.764-30.686,12.493-66.594,14.404-90.351c0.41-5.001,0.734-9.498,1.007-13.252c0.29-4.087,0.597-8.277,0.836-10.675
			c0.512-0.503,1.033-0.905,1.655-1.195c1.135-0.555,2.654-0.776,5.385-0.196c3.354,0.674,5.905,1.442,8.013,2.389
			c3.234,1.468,6.366,3.567,9.336,6.093c1.587,1.34,3.14,2.825,4.634,4.446c0.427,0.461,0.819,0.973,1.229,1.451
			c0.939,1.092,1.835,2.253,2.714,3.439c1.297,1.766,2.517,3.627,3.652,5.581c0.23,0.393,0.478,0.768,0.708,1.178
			c4.796,8.67,7.885,18.893,8.201,29.423c0.009,0.512-0.017,1.015-0.017,1.527c0.009,2.261-0.128,4.523-0.384,6.793
			c-0.29,2.321-0.623,4.634-1.229,6.955c-0.068,0.282-0.102,0.563-0.179,0.845l-4.557,24.499l-5.333,16
			c-1.493,4.471,0.93,9.301,5.393,10.786c0.905,0.307,1.809,0.444,2.697,0.444c3.575,0,6.903-2.253,8.098-5.828l4.89-14.686
			l120.269-120.26c1.05-1.05,2.167-1.946,3.328-2.748c0.333-0.239,0.674-0.427,1.015-0.64c0.87-0.546,1.749-1.033,2.662-1.442
			c0.384-0.179,0.777-0.35,1.169-0.503c0.896-0.341,1.809-0.614,2.731-0.836c0.41-0.102,0.819-0.239,1.237-0.307
			c0.836-0.154,1.681-0.196,2.526-0.256c3.806-0.213,7.689,0.538,11.383,2.424c0.017,0.017,0.043,0.026,0.06,0.034
			c0.06,0.026,0.119,0.026,0.179,0.051c2.082,1.092,4.096,2.432,5.888,4.224c10.078,10.078,9.387,22.793-1.843,34.022
			l-64.529,64.538c-0.026,0.026-0.034,0.068-0.06,0.094c-0.034,0.034-0.077,0.043-0.111,0.068l-44.245,46.78
			c-3.243,3.422-3.098,8.823,0.333,12.066c1.647,1.562,3.755,2.33,5.862,2.33c2.261,0,4.531-0.887,6.204-2.662l44.245-46.771
			l88.337-88.337c11.87-11.878,24.755-7.432,32.179,0c8.875,8.866,8.875,23.305,0,32.179l-21.717,21.726
			c-0.119,0.119-0.247,0.239-0.358,0.35l-66.355,66.364l-28.766,28.126c-3.362,3.285-3.43,8.687-0.137,12.066
			c1.672,1.707,3.891,2.56,6.101,2.56c2.15,0,4.309-0.802,5.973-2.432l28.766-28.126c0.009-0.008,0.009-0.026,0.026-0.034
			c0.009-0.017,0.026-0.017,0.034-0.026l66.645-66.645c5.547-5.146,23.381-8.269,31.915,0.265
			C449.254,199.369,449.254,213.816,440.481,222.597z"/>
	</g>
</g>
<g>
</g>
<g>
</g>
<g>
</g>
<g>
</g>
<g>
</g>
<g>
</g>
<g>
</g>
<g>
</g>
<g>
</g>
<g>
</g>
<g>
</g>
<g>
</g>
<g>
</g>
<g>
</g>
<g>
</g>
</svg>
